# xmcd
#
# Track frame offsets:
#	150
#	20075
#	39906
#	51785
#	66665
#	84644
#	101879
#	121769
#	132764
#	150172
#
# Disc length: 2300
#
# Revision: 1
# Processed by: cddbd v1.5.1PL0 Copyright (c) Steve Scherf et al.
# Submitted via: CDex 1.50beta10
# Normalized: r0:DSETVAR1,TDELIM( - )
#
DISCID=7e08fa0a
DTITLE=Various Artist - Hot Tunes to Get You Cooking
DYEAR=1999
DGENRE=Salsa
TTITLE0=Los Reyes - La Quiero
TTITLE1=Lefty Perez - Despues De Ti
TTITLE2=Jose Feliciano - Pegao
TTITLE3=Tito Puente - Guarija Flute
TTITLE4=Mili Bermejo and Dan Greenspan - Lucky Southern
TTITLE5=La Vienta - Nino
TTITLE6=The Blazers - El Ano Viejo
TTITLE7=Flaco Jimenez - Victoria
TTITLE8=Cocoband - El Toro En La Capital
TTITLE9=Papo Vazques - Chango y Yemeya
EXTD=YEAR: 1999
EXTT0=
EXTT1=
EXTT2=
EXTT3=
EXTT4=
EXTT5=
EXTT6=
EXTT7=
EXTT8=
EXTT9=
PLAYORDER=
